<?xml version="1.0" standalone="no"?>
<!DOCTYPE svg PUBLIC "-//W3C//DTD SVG 20010904//EN"
 "http://www.w3.org/TR/2001/REC-SVG-20010904/DTD/svg10.dtd">
<svg version="1.0" xmlns="http://www.w3.org/2000/svg"
 width="94.000000pt" height="27.000000pt" viewBox="0 0 94.000000 27.000000"
 preserveAspectRatio="xMidYMid meet">
<metadata>
Created by potrace 1.16, written by Peter Selinger 2001-2019
</metadata>
<g transform="translate(0.000000,27.000000) scale(0.100000,-0.100000)"
fill="#000000" stroke="none">
<path d="M12 258 c-16 -16 -16 -220 0 -236 17 -17 899 -17 916 0 16 16 16 220
0 236 -17 17 -899 17 -916 0z m212 -108 c-4 -18 -1 -36 6 -45 21 -26 -14 -55
-66 -55 -38 0 -45 4 -59 30 -18 34 -19 54 -5 81 9 15 22 19 70 19 l60 0 -6
-30z"/>
</g>
</svg>
