<?xml version="1.0" standalone="no"?>
<!DOCTYPE svg PUBLIC "-//W3C//DTD SVG 20010904//EN"
 "http://www.w3.org/TR/2001/REC-SVG-20010904/DTD/svg10.dtd">
<svg version="1.0" xmlns="http://www.w3.org/2000/svg"
 width="97.000000pt" height="27.000000pt" viewBox="0 0 97.000000 27.000000"
 preserveAspectRatio="xMidYMid meet">
<metadata>
Created by potrace 1.16, written by Peter Selinger 2001-2019
</metadata>
<g transform="translate(0.000000,27.000000) scale(0.100000,-0.100000)"
fill="#000000" stroke="none">
<path d="M28 259 c-15 -9 -18 -26 -18 -118 0 -81 4 -112 14 -120 10 -9 135
-12 458 -11 438 0 443 0 461 21 11 14 17 17 17 7 0 -8 -6 -21 -12 -29 -11 -12
-11 -12 1 -2 10 9 14 42 14 133 0 66 -3 123 -6 126 -3 3 -3 -5 0 -18 l5 -23
-16 23 -17 22 -442 0 c-282 0 -448 -4 -459 -11z"/>
</g>
</svg>
