<?xml version="1.0" standalone="no"?>
<!DOCTYPE svg PUBLIC "-//W3C//DTD SVG 20010904//EN"
 "http://www.w3.org/TR/2001/REC-SVG-20010904/DTD/svg10.dtd">
<svg version="1.0" xmlns="http://www.w3.org/2000/svg"
 width="96.000000pt" height="27.000000pt" viewBox="0 0 96.000000 27.000000"
 preserveAspectRatio="xMidYMid meet">
<metadata>
Created by potrace 1.16, written by Peter Selinger 2001-2019
</metadata>
<g transform="translate(0.000000,27.000000) scale(0.100000,-0.100000)"
fill="#000000" stroke="none">
<path d="M28 259 c-15 -9 -18 -26 -18 -118 0 -81 4 -112 14 -120 10 -9 135
-12 458 -11 523 0 478 -12 478 129 0 62 -4 93 -16 109 l-15 22 -442 0 c-282 0
-448 -4 -459 -11z m222 -143 c0 -79 -5 -81 -137 -51 -20 5 -23 12 -23 50 0 38
3 45 23 50 127 29 137 26 137 -49z"/>
</g>
</svg>
